<?xml version="1.0" encoding="UTF-8" standalone="yes"?><svg xmlns="http://www.w3.org/2000/svg" xmlns:xlink="http://www.w3.org/1999/xlink" height="601.7839pt" style="width:793px;height:601px;" version="1.1" viewBox="0 0 793 601" width="793.6571pt"><defs><filter height="300%" id="f1" width="300%" x="-1" y="-1"><feGaussianBlur result="blurOut" stdDeviation="1.5857284440039643"/><feColorMatrix in="blurOut" result="blurOut2" type="matrix" values="0 0 0 0 0 0 0 0 0 0 0 0 0 0 0 0 0 0 .4 0"/><feOffset dx="3.1714568880079286" dy="3.1714568880079286" in="blurOut2" result="blurOut3"/><feBlend in="SourceGraphic" in2="blurOut3" mode="normal"/></filter></defs><g><rect fill="#FEFECE" filter="url(#f1)" height="58.3746" style="stroke: #A80036; stroke-width: 1.1892963330029733;" width="154.6085" x="227.552" y="38.8503"/><ellipse cx="250.5055" cy="51.5362" fill="#A9DCDF" rx="8.7215" ry="8.7215" style="stroke: #A80036; stroke-width: 0.7928642220019821;"/><path d="M250.5922,47.8444 L249.6754,51.8707 L251.5213,51.8707 L250.5922,47.8444 Z M249.4153,46.0728 L251.7815,46.0728 L254.445,55.8969 L252.5,55.8969 L251.893,53.4688 L249.2914,53.4688 L248.6967,55.8969 L246.7641,55.8969 L249.4153,46.0728 Z "/><text fill="#000000" font-family="sans-serif" font-size="9.5144" font-style="italic" lengthAdjust="spacingAndGlyphs" textLength="104.6581" x="264.0634" y="54.8315">DataSimulationModel</text><line style="stroke: #A80036; stroke-width: 1.1892963330029733;" x1="228.3449" x2="381.3677" y1="64.222" y2="64.222"/><line style="stroke: #A80036; stroke-width: 1.1892963330029733;" x1="228.3449" x2="381.3677" y1="70.5649" y2="70.5649"/><ellipse cx="236.2735" cy="80.005" fill="#84BE84" rx="2.3786" ry="2.3786" style="stroke: #038048; stroke-width: 0.7928642220019821;"/><text fill="#000000" font-family="sans-serif" font-size="8.7215" lengthAdjust="spacingAndGlyphs" textLength="133.9941" x="243.4093" y="81.8385">generate_data (numSamples)</text><ellipse cx="236.2735" cy="90.1635" fill="#84BE84" rx="2.3786" ry="2.3786" style="stroke: #038048; stroke-width: 0.7928642220019821;"/><text fill="#000000" font-family="sans-serif" font-size="8.7215" lengthAdjust="spacingAndGlyphs" textLength="93.558" x="243.4093" y="91.997">draw_model  (axisId)</text><rect fill="#FEFECE" filter="url(#f1)" height="38.0575" style="stroke: #A80036; stroke-width: 1.1892963330029733;" width="44.4004" x="471.7542" y="186.3231"/><ellipse cx="483.6472" cy="199.0089" fill="#ADD1B2" rx="8.7215" ry="8.7215" style="stroke: #A80036; stroke-width: 0.7928642220019821;"/><path d="M486.001,203.4812 Q485.5426,203.7166 485.0347,203.8342 Q484.5268,203.9519 483.9693,203.9519 Q481.9871,203.9519 480.9403,202.6449 Q479.8935,201.338 479.8935,198.8603 Q479.8935,196.3826 480.9403,195.0694 Q481.9871,193.7562 483.9693,193.7562 Q484.5268,193.7562 485.0409,193.8801 Q485.555,194.004 486.001,194.2393 L486.001,196.3949 Q485.5055,195.9366 485.0347,195.7198 Q484.5639,195.503 484.0684,195.503 Q483.003,195.503 482.4579,196.3516 Q481.9128,197.2002 481.9128,198.8603 Q481.9128,200.5203 482.4579,201.3689 Q483.003,202.2175 484.0684,202.2175 Q484.5639,202.2175 485.0347,202.0007 Q485.5055,201.7839 486.001,201.3256 L486.001,203.4812 Z "/><text fill="#000000" font-family="sans-serif" font-size="9.5144" lengthAdjust="spacingAndGlyphs" textLength="19.0287" x="494.7473" y="202.3043">Plot</text><line style="stroke: #A80036; stroke-width: 1.1892963330029733;" x1="472.5471" x2="515.3617" y1="211.6947" y2="211.6947"/><line style="stroke: #A80036; stroke-width: 1.1892963330029733;" x1="472.5471" x2="515.3617" y1="218.0377" y2="218.0377"/><rect fill="#FEFECE" filter="url(#f1)" height="38.0575" style="stroke: #A80036; stroke-width: 1.1892963330029733;" width="165.7086" x="4.7572" y="186.3231"/><ellipse cx="16.6501" cy="199.0089" fill="#ADD1B2" rx="8.7215" ry="8.7215" style="stroke: #A80036; stroke-width: 0.7928642220019821;"/><path d="M19.004,203.4812 Q18.5456,203.7166 18.0377,203.8342 Q17.5297,203.9519 16.9722,203.9519 Q14.9901,203.9519 13.9433,202.6449 Q12.8964,201.338 12.8964,198.8603 Q12.8964,196.3826 13.9433,195.0694 Q14.9901,193.7562 16.9722,193.7562 Q17.5297,193.7562 18.0439,193.8801 Q18.558,194.004 19.004,194.2393 L19.004,196.3949 Q18.5084,195.9366 18.0377,195.7198 Q17.5669,195.503 17.0714,195.503 Q16.0059,195.503 15.4609,196.3516 Q14.9158,197.2002 14.9158,198.8603 Q14.9158,200.5203 15.4609,201.3689 Q16.0059,202.2175 17.0714,202.2175 Q17.5669,202.2175 18.0377,202.0007 Q18.5084,201.7839 19.004,201.3256 L19.004,203.4812 Z "/><text fill="#000000" font-family="sans-serif" font-size="9.5144" lengthAdjust="spacingAndGlyphs" textLength="140.337" x="27.7502" y="202.3043">MultiVariatedGaussianModel</text><line style="stroke: #A80036; stroke-width: 1.1892963330029733;" x1="5.55" x2="169.6729" y1="211.6947" y2="211.6947"/><line style="stroke: #A80036; stroke-width: 1.1892963330029733;" x1="5.55" x2="169.6729" y1="218.0377" y2="218.0377"/><rect fill="#FEFECE" filter="url(#f1)" height="38.0575" style="stroke: #A80036; stroke-width: 1.1892963330029733;" width="89.5937" x="197.4232" y="186.3231"/><ellipse cx="209.3162" cy="199.0089" fill="#ADD1B2" rx="8.7215" ry="8.7215" style="stroke: #A80036; stroke-width: 0.7928642220019821;"/><path d="M211.67,203.4812 Q211.2116,203.7166 210.7037,203.8342 Q210.1957,203.9519 209.6383,203.9519 Q207.6561,203.9519 206.6093,202.6449 Q205.5624,201.338 205.5624,198.8603 Q205.5624,196.3826 206.6093,195.0694 Q207.6561,193.7562 209.6383,193.7562 Q210.1957,193.7562 210.7099,193.8801 Q211.224,194.004 211.67,194.2393 L211.67,196.3949 Q211.1744,195.9366 210.7037,195.7198 Q210.2329,195.503 209.7374,195.503 Q208.672,195.503 208.1269,196.3516 Q207.5818,197.2002 207.5818,198.8603 Q207.5818,200.5203 208.1269,201.3689 Q208.672,202.2175 209.7374,202.2175 Q210.2329,202.2175 210.7037,202.0007 Q211.1744,201.7839 211.67,201.3256 L211.67,203.4812 Z "/><text fill="#000000" font-family="sans-serif" font-size="9.5144" lengthAdjust="spacingAndGlyphs" textLength="64.222" x="220.4163" y="202.3043">DoubleMVGM</text><line style="stroke: #A80036; stroke-width: 1.1892963330029733;" x1="198.2161" x2="286.224" y1="211.6947" y2="211.6947"/><line style="stroke: #A80036; stroke-width: 1.1892963330029733;" x1="198.2161" x2="286.224" y1="218.0377" y2="218.0377"/><rect fill="#FEFECE" filter="url(#f1)" height="58.3746" style="stroke: #A80036; stroke-width: 1.1892963330029733;" width="130.8226" x="313.9742" y="176.0159"/><ellipse cx="333.3598" cy="188.7017" fill="#ADD1B2" rx="8.7215" ry="8.7215" style="stroke: #A80036; stroke-width: 0.7928642220019821;"/><path d="M335.7136,193.1739 Q335.2552,193.4093 334.7473,193.527 Q334.2393,193.6447 333.6819,193.6447 Q331.6997,193.6447 330.6529,192.3377 Q329.606,191.0307 329.606,188.553 Q329.606,186.0753 330.6529,184.7621 Q331.6997,183.449 333.6819,183.449 Q334.2393,183.449 334.7535,183.5728 Q335.2676,183.6967 335.7136,183.9321 L335.7136,186.0877 Q335.218,185.6293 334.7473,185.4125 Q334.2765,185.1957 333.781,185.1957 Q332.7156,185.1957 332.1705,186.0444 Q331.6254,186.893 331.6254,188.553 Q331.6254,190.2131 332.1705,191.0617 Q332.7156,191.9103 333.781,191.9103 Q334.2765,191.9103 334.7473,191.6935 Q335.218,191.4767 335.7136,191.0183 L335.7136,193.1739 Z "/><text fill="#000000" font-family="sans-serif" font-size="9.5144" lengthAdjust="spacingAndGlyphs" textLength="88.8008" x="346.1249" y="191.997">HyperSpaceMVGM</text><line style="stroke: #A80036; stroke-width: 1.1892963330029733;" x1="314.7671" x2="444.004" y1="201.3875" y2="201.3875"/><rect fill="none" height="4.7572" style="stroke: #C82930; stroke-width: 0.7928642220019821;" width="4.7572" x="320.3171" y="208.449"/><text fill="#000000" font-family="sans-serif" font-size="8.7215" lengthAdjust="spacingAndGlyphs" textLength="65.0149" x="329.8315" y="212.6611">dimensions=3</text><line style="stroke: #A80036; stroke-width: 1.1892963330029733;" x1="314.7671" x2="444.004" y1="217.889" y2="217.889"/><ellipse cx="322.6957" cy="227.329" fill="#84BE84" rx="2.3786" ry="2.3786" style="stroke: #038048; stroke-width: 0.7928642220019821;"/><text fill="#000000" font-family="sans-serif" font-size="8.7215" lengthAdjust="spacingAndGlyphs" textLength="110.2081" x="329.8315" y="229.1625">draw_model_3D  (axisId)</text><rect fill="#FEFECE" filter="url(#f1)" height="88.8503" style="stroke: #A80036; stroke-width: 1.1892963330029733;" width="122.1011" x="512.9832" y="23.7859"/><ellipse cx="534.5094" cy="36.4718" fill="#ADD1B2" rx="8.7215" ry="8.7215" style="stroke: #A80036; stroke-width: 0.7928642220019821;"/><path d="M536.8632,40.944 Q536.4049,41.1794 535.8969,41.2971 Q535.389,41.4148 534.8315,41.4148 Q532.8494,41.4148 531.8025,40.1078 Q530.7557,38.8008 530.7557,36.3231 Q530.7557,33.8454 531.8025,32.5322 Q532.8494,31.219 534.8315,31.219 Q535.389,31.219 535.9031,31.3429 Q536.4172,31.4668 536.8632,31.7022 L536.8632,33.8578 Q536.3677,33.3994 535.8969,33.1826 Q535.4262,32.9658 534.9306,32.9658 Q533.8652,32.9658 533.3201,33.8144 Q532.775,34.663 532.775,36.3231 Q532.775,37.9832 533.3201,38.8318 Q533.8652,39.6804 534.9306,39.6804 Q535.4262,39.6804 535.8969,39.4636 Q536.3677,39.2468 536.8632,38.7884 L536.8632,40.944 Z "/><text fill="#000000" font-family="sans-serif" font-size="9.5144" lengthAdjust="spacingAndGlyphs" textLength="75.3221" x="547.7502" y="39.7671">DataSimulation</text><line style="stroke: #A80036; stroke-width: 1.1892963330029733;" x1="513.776" x2="634.2914" y1="49.1576" y2="49.1576"/><rect fill="none" height="4.7572" style="stroke: #C82930; stroke-width: 0.7928642220019821;" width="4.7572" x="519.3261" y="56.219"/><text fill="#000000" font-family="sans-serif" font-size="8.7215" lengthAdjust="spacingAndGlyphs" textLength="57.8791" x="528.8404" y="60.4311">randomSeed</text><ellipse cx="521.7047" cy="68.7562" fill="none" rx="2.3786" ry="2.3786" style="stroke: #038048; stroke-width: 0.7928642220019821;"/><text fill="#000000" font-family="sans-serif" font-size="8.7215" lengthAdjust="spacingAndGlyphs" textLength="100.6938" x="528.8404" y="70.5897">numSamplesPerModel</text><ellipse cx="521.7047" cy="78.9148" fill="none" rx="2.3786" ry="2.3786" style="stroke: #038048; stroke-width: 0.7928642220019821;"/><text fill="#000000" font-family="sans-serif" font-size="8.7215" lengthAdjust="spacingAndGlyphs" textLength="66.6006" x="528.8404" y="80.7483">modelsAndInfo</text><ellipse cx="521.7047" cy="89.0733" fill="none" rx="2.3786" ry="2.3786" style="stroke: #038048; stroke-width: 0.7928642220019821;"/><text fill="#000000" font-family="sans-serif" font-size="8.7215" lengthAdjust="spacingAndGlyphs" textLength="55.5005" x="528.8404" y="90.9068">randomSets</text><line style="stroke: #A80036; stroke-width: 1.1892963330029733;" x1="513.776" x2="634.2914" y1="96.1348" y2="96.1348"/><ellipse cx="521.7047" cy="105.5748" fill="#84BE84" rx="2.3786" ry="2.3786" style="stroke: #038048; stroke-width: 0.7928642220019821;"/><text fill="#000000" font-family="sans-serif" font-size="8.7215" lengthAdjust="spacingAndGlyphs" textLength="101.4866" x="528.8404" y="107.4083">draw_samples (axisId)</text><rect fill="#FEFECE" filter="url(#f1)" height="48.2161" style="stroke: #A80036; stroke-width: 1.1892963330029733;" width="105.4509" x="681.0704" y="43.2111"/><ellipse cx="692.9633" cy="55.8969" fill="#ADD1B2" rx="8.7215" ry="8.7215" style="stroke: #A80036; stroke-width: 0.7928642220019821;"/><path d="M695.3171,60.3692 Q694.8588,60.6046 694.3508,60.7222 Q693.8429,60.8399 693.2854,60.8399 Q691.3033,60.8399 690.2564,59.533 Q689.2096,58.226 689.2096,55.7483 Q689.2096,53.2706 690.2564,51.9574 Q691.3033,50.6442 693.2854,50.6442 Q693.8429,50.6442 694.357,50.7681 Q694.8712,50.892 695.3171,51.1274 L695.3171,53.283 Q694.8216,52.8246 694.3508,52.6078 Q693.8801,52.391 693.3845,52.391 Q692.3191,52.391 691.774,53.2396 Q691.2289,54.0882 691.2289,55.7483 Q691.2289,57.4083 691.774,58.2569 Q692.3191,59.1056 693.3845,59.1056 Q693.8801,59.1056 694.3508,58.8888 Q694.8216,58.672 695.3171,58.2136 L695.3171,60.3692 Z "/><text fill="#000000" font-family="sans-serif" font-size="9.5144" lengthAdjust="spacingAndGlyphs" textLength="80.0793" x="704.0634" y="59.1923">DataSimulation_</text><line style="stroke: #A80036; stroke-width: 1.1892963330029733;" x1="681.8632" x2="785.7284" y1="68.5828" y2="68.5828"/><ellipse cx="689.7919" cy="78.0228" fill="none" rx="2.3786" ry="2.3786" style="stroke: #038048; stroke-width: 0.7928642220019821;"/><text fill="#000000" font-family="sans-serif" font-size="8.7215" lengthAdjust="spacingAndGlyphs" textLength="59.4648" x="696.9277" y="79.8563">numSamples</text><line style="stroke: #A80036; stroke-width: 1.1892963330029733;" x1="681.8632" x2="785.7284" y1="85.0842" y2="85.0842"/><rect fill="#FEFECE" filter="url(#f1)" height="58.3746" style="stroke: #A80036; stroke-width: 1.1892963330029733;" width="111.7939" x="432.9039" y="323.4886"/><ellipse cx="448.3647" cy="336.1744" fill="#A9DCDF" rx="8.7215" ry="8.7215" style="stroke: #A80036; stroke-width: 0.7928642220019821;"/><path d="M448.4514,332.4827 L447.5347,336.5089 L449.3806,336.5089 L448.4514,332.4827 Z M447.2745,330.7111 L449.6407,330.7111 L452.3043,340.5352 L450.3593,340.5352 L449.7522,338.107 L447.1506,338.107 L446.556,340.5352 L444.6234,340.5352 L447.2745,330.7111 Z "/><text fill="#000000" font-family="sans-serif" font-size="9.5144" font-style="italic" lengthAdjust="spacingAndGlyphs" textLength="78.4936" x="460.2577" y="339.4698">ProjectionModel</text><line style="stroke: #A80036; stroke-width: 1.1892963330029733;" x1="433.6967" x2="543.9049" y1="348.8603" y2="348.8603"/><line style="stroke: #A80036; stroke-width: 1.1892963330029733;" x1="433.6967" x2="543.9049" y1="355.2032" y2="355.2032"/><ellipse cx="441.6254" cy="364.6432" fill="#84BE84" rx="2.3786" ry="2.3786" style="stroke: #038048; stroke-width: 0.7928642220019821;"/><text fill="#000000" font-family="sans-serif" font-size="8.7215" lengthAdjust="spacingAndGlyphs" textLength="81.665" x="448.7611" y="366.4767">project_data(data)</text><ellipse cx="441.6254" cy="374.8018" fill="#84BE84" rx="2.3786" ry="2.3786" style="stroke: #038048; stroke-width: 0.7928642220019821;"/><text fill="#000000" font-family="sans-serif" font-size="8.7215" lengthAdjust="spacingAndGlyphs" textLength="91.1794" x="448.7611" y="376.6353">display_base(axisId)</text><rect fill="#FEFECE" filter="url(#f1)" height="38.0575" style="stroke: #A80036; stroke-width: 1.1892963330029733;" width="44.4004" x="535.1833" y="470.9613"/><ellipse cx="547.0763" cy="483.6472" fill="#ADD1B2" rx="8.7215" ry="8.7215" style="stroke: #A80036; stroke-width: 0.7928642220019821;"/><path d="M549.4301,488.1194 Q548.9718,488.3548 548.4638,488.4725 Q547.9559,488.5902 547.3984,488.5902 Q545.4163,488.5902 544.3694,487.2832 Q543.3226,485.9762 543.3226,483.4985 Q543.3226,481.0208 544.3694,479.7076 Q545.4163,478.3944 547.3984,478.3944 Q547.9559,478.3944 548.47,478.5183 Q548.9841,478.6422 549.4301,478.8776 L549.4301,481.0332 Q548.9346,480.5748 548.4638,480.358 Q547.9931,480.1412 547.4975,480.1412 Q546.4321,480.1412 545.887,480.9898 Q545.3419,481.8385 545.3419,483.4985 Q545.3419,485.1586 545.887,486.0072 Q546.4321,486.8558 547.4975,486.8558 Q547.9931,486.8558 548.4638,486.639 Q548.9346,486.4222 549.4301,485.9638 L549.4301,488.1194 Z "/><text fill="#000000" font-family="sans-serif" font-size="9.5144" lengthAdjust="spacingAndGlyphs" textLength="19.0287" x="558.1764" y="486.9425">PCA</text><line style="stroke: #A80036; stroke-width: 1.1892963330029733;" x1="535.9762" x2="578.7909" y1="496.333" y2="496.333"/><line style="stroke: #A80036; stroke-width: 1.1892963330029733;" x1="535.9762" x2="578.7909" y1="502.6759" y2="502.6759"/><rect fill="#FEFECE" filter="url(#f1)" height="38.0575" style="stroke: #A80036; stroke-width: 1.1892963330029733;" width="77.7007" x="359.1675" y="470.9613"/><ellipse cx="371.0605" cy="483.6472" fill="#ADD1B2" rx="8.7215" ry="8.7215" style="stroke: #A80036; stroke-width: 0.7928642220019821;"/><path d="M373.4143,488.1194 Q372.9559,488.3548 372.448,488.4725 Q371.94,488.5902 371.3826,488.5902 Q369.4004,488.5902 368.3536,487.2832 Q367.3067,485.9762 367.3067,483.4985 Q367.3067,481.0208 368.3536,479.7076 Q369.4004,478.3944 371.3826,478.3944 Q371.94,478.3944 372.4542,478.5183 Q372.9683,478.6422 373.4143,478.8776 L373.4143,481.0332 Q372.9187,480.5748 372.448,480.358 Q371.9772,480.1412 371.4817,480.1412 Q370.4163,480.1412 369.8712,480.9898 Q369.3261,481.8385 369.3261,483.4985 Q369.3261,485.1586 369.8712,486.0072 Q370.4163,486.8558 371.4817,486.8558 Q371.9772,486.8558 372.448,486.639 Q372.9187,486.4222 373.4143,485.9638 L373.4143,488.1194 Z "/><text fill="#000000" font-family="sans-serif" font-size="9.5144" lengthAdjust="spacingAndGlyphs" textLength="52.329" x="382.1606" y="486.9425">SingleFeat</text><line style="stroke: #A80036; stroke-width: 1.1892963330029733;" x1="359.9604" x2="436.0753" y1="496.333" y2="496.333"/><line style="stroke: #A80036; stroke-width: 1.1892963330029733;" x1="359.9604" x2="436.0753" y1="502.6759" y2="502.6759"/><rect fill="#FEFECE" filter="url(#f1)" height="38.0575" style="stroke: #A80036; stroke-width: 1.1892963330029733;" width="43.6075" x="464.6184" y="470.9613"/><ellipse cx="476.5114" cy="483.6472" fill="#ADD1B2" rx="8.7215" ry="8.7215" style="stroke: #A80036; stroke-width: 0.7928642220019821;"/><path d="M478.8652,488.1194 Q478.4068,488.3548 477.8989,488.4725 Q477.391,488.5902 476.8335,488.5902 Q474.8513,488.5902 473.8045,487.2832 Q472.7577,485.9762 472.7577,483.4985 Q472.7577,481.0208 473.8045,479.7076 Q474.8513,478.3944 476.8335,478.3944 Q477.391,478.3944 477.9051,478.5183 Q478.4192,478.6422 478.8652,478.8776 L478.8652,481.0332 Q478.3697,480.5748 477.8989,480.358 Q477.4281,480.1412 476.9326,480.1412 Q475.8672,480.1412 475.3221,480.9898 Q474.777,481.8385 474.777,483.4985 Q474.777,485.1586 475.3221,486.0072 Q475.8672,486.8558 476.9326,486.8558 Q477.4281,486.8558 477.8989,486.639 Q478.3697,486.4222 478.8652,485.9638 L478.8652,488.1194 Z "/><text fill="#000000" font-family="sans-serif" font-size="9.5144" lengthAdjust="spacingAndGlyphs" textLength="18.2359" x="487.6115" y="486.9425">LDA</text><line style="stroke: #A80036; stroke-width: 1.1892963330029733;" x1="465.4113" x2="507.4331" y1="496.333" y2="496.333"/><line style="stroke: #A80036; stroke-width: 1.1892963330029733;" x1="465.4113" x2="507.4331" y1="502.6759" y2="502.6759"/><rect fill="#FEFECE" filter="url(#f1)" height="38.0575" style="stroke: #A80036; stroke-width: 1.1892963330029733;" width="99.9009" x="607.334" y="470.9613"/><ellipse cx="619.227" cy="483.6472" fill="#A9DCDF" rx="8.7215" ry="8.7215" style="stroke: #A80036; stroke-width: 0.7928642220019821;"/><path d="M619.3137,479.9554 L618.3969,483.9817 L620.2428,483.9817 L619.3137,479.9554 Z M618.1368,478.1838 L620.503,478.1838 L623.1665,488.0079 L621.2215,488.0079 L620.6145,485.5798 L618.0129,485.5798 L617.4182,488.0079 L615.4856,488.0079 L618.1368,478.1838 Z "/><text fill="#000000" font-family="sans-serif" font-size="9.5144" font-style="italic" lengthAdjust="spacingAndGlyphs" textLength="74.5292" x="630.3271" y="486.9425">SamplingModel</text><line style="stroke: #A80036; stroke-width: 1.1892963330029733;" x1="608.1269" x2="706.442" y1="496.333" y2="496.333"/><line style="stroke: #A80036; stroke-width: 1.1892963330029733;" x1="608.1269" x2="706.442" y1="502.6759" y2="502.6759"/><rect fill="#FEFECE" filter="url(#f1)" height="38.0575" style="stroke: #A80036; stroke-width: 1.1892963330029733;" width="98.3152" x="553.4192" y="556.5907"/><ellipse cx="565.3122" cy="569.2765" fill="#ADD1B2" rx="8.7215" ry="8.7215" style="stroke: #A80036; stroke-width: 0.7928642220019821;"/><path d="M567.666,573.7488 Q567.2076,573.9841 566.6997,574.1018 Q566.1918,574.2195 565.6343,574.2195 Q563.6521,574.2195 562.6053,572.9125 Q561.5585,571.6056 561.5585,569.1278 Q561.5585,566.6501 562.6053,565.337 Q563.6521,564.0238 565.6343,564.0238 Q566.1918,564.0238 566.7059,564.1477 Q567.22,564.2716 567.666,564.5069 L567.666,566.6625 Q567.1705,566.2042 566.6997,565.9874 Q566.2289,565.7706 565.7334,565.7706 Q564.668,565.7706 564.1229,566.6192 Q563.5778,567.4678 563.5778,569.1278 Q563.5778,570.7879 564.1229,571.6365 Q564.668,572.4851 565.7334,572.4851 Q566.2289,572.4851 566.6997,572.2683 Q567.1705,572.0515 567.666,571.5932 L567.666,573.7488 Z "/><text fill="#000000" font-family="sans-serif" font-size="9.5144" lengthAdjust="spacingAndGlyphs" textLength="72.9435" x="576.4123" y="572.5719">ModeGaussian</text><line style="stroke: #A80036; stroke-width: 1.1892963330029733;" x1="554.2121" x2="650.9415" y1="581.9623" y2="581.9623"/><line style="stroke: #A80036; stroke-width: 1.1892963330029733;" x1="554.2121" x2="650.9415" y1="588.3053" y2="588.3053"/><rect fill="#FEFECE" filter="url(#f1)" height="38.0575" style="stroke: #A80036; stroke-width: 1.1892963330029733;" width="63.4291" x="679.4846" y="556.5907"/><ellipse cx="691.3776" cy="569.2765" fill="#ADD1B2" rx="8.7215" ry="8.7215" style="stroke: #A80036; stroke-width: 0.7928642220019821;"/><path d="M693.7314,573.7488 Q693.273,573.9841 692.7651,574.1018 Q692.2572,574.2195 691.6997,574.2195 Q689.7175,574.2195 688.6707,572.9125 Q687.6239,571.6056 687.6239,569.1278 Q687.6239,566.6501 688.6707,565.337 Q689.7175,564.0238 691.6997,564.0238 Q692.2572,564.0238 692.7713,564.1477 Q693.2854,564.2716 693.7314,564.5069 L693.7314,566.6625 Q693.2359,566.2042 692.7651,565.9874 Q692.2944,565.7706 691.7988,565.7706 Q690.7334,565.7706 690.1883,566.6192 Q689.6432,567.4678 689.6432,569.1278 Q689.6432,570.7879 690.1883,571.6365 Q690.7334,572.4851 691.7988,572.4851 Q692.2944,572.4851 692.7651,572.2683 Q693.2359,572.0515 693.7314,571.5932 L693.7314,573.7488 Z "/><text fill="#000000" font-family="sans-serif" font-size="9.5144" lengthAdjust="spacingAndGlyphs" textLength="38.0575" x="702.4777" y="572.5719">Entropy</text><line style="stroke: #A80036; stroke-width: 1.1892963330029733;" x1="680.2775" x2="742.1209" y1="581.9623" y2="581.9623"/><line style="stroke: #A80036; stroke-width: 1.1892963330029733;" x1="680.2775" x2="742.1209" y1="588.3053" y2="588.3053"/><rect fill="#FEFECE" filter="url(#f1)" height="109.1675" style="stroke: #A80036; stroke-width: 1.1892963330029733;" width="110.2081" x="598.6125" y="298.9098"/><ellipse cx="612.2894" cy="311.5956" fill="#ADD1B2" rx="8.7215" ry="8.7215" style="stroke: #A80036; stroke-width: 0.7928642220019821;"/><path d="M614.6432,316.0679 Q614.1848,316.3033 613.6769,316.421 Q613.169,316.5387 612.6115,316.5387 Q610.6293,316.5387 609.5825,315.2317 Q608.5357,313.9247 608.5357,311.447 Q608.5357,308.9693 609.5825,307.6561 Q610.6293,306.3429 612.6115,306.3429 Q613.169,306.3429 613.6831,306.4668 Q614.1972,306.5907 614.6432,306.8261 L614.6432,308.9817 Q614.1477,308.5233 613.6769,308.3065 Q613.2061,308.0897 612.7106,308.0897 Q611.6452,308.0897 611.1001,308.9383 Q610.555,309.7869 610.555,311.447 Q610.555,313.107 611.1001,313.9556 Q611.6452,314.8043 612.7106,314.8043 Q613.2061,314.8043 613.6769,314.5875 Q614.1477,314.3707 614.6432,313.9123 L614.6432,316.0679 Z "/><text fill="#000000" font-family="sans-serif" font-size="9.5144" lengthAdjust="spacingAndGlyphs" textLength="80.8722" x="623.7859" y="314.891">RandomSampler</text><line style="stroke: #A80036; stroke-width: 1.1892963330029733;" x1="599.4054" x2="708.0278" y1="324.2815" y2="324.2815"/><rect fill="none" height="4.7572" style="stroke: #C82930; stroke-width: 0.7928642220019821;" width="4.7572" x="604.9554" y="331.3429"/><text fill="#000000" font-family="sans-serif" font-size="8.7215" lengthAdjust="spacingAndGlyphs" textLength="76.115" x="614.4698" y="335.555">labelFlippingProb</text><rect fill="none" height="4.7572" style="stroke: #C82930; stroke-width: 0.7928642220019821;" width="4.7572" x="604.9554" y="341.5015"/><text fill="#000000" font-family="sans-serif" font-size="8.7215" lengthAdjust="spacingAndGlyphs" textLength="45.9861" x="614.4698" y="345.7136">noiseType</text><rect fill="none" height="4.7572" style="stroke: #C82930; stroke-width: 0.7928642220019821;" width="4.7572" x="604.9554" y="351.6601"/><text fill="#000000" font-family="sans-serif" font-size="8.7215" lengthAdjust="spacingAndGlyphs" textLength="59.4648" x="614.4698" y="355.8722">numSamples</text><ellipse cx="607.334" cy="364.1972" fill="none" rx="2.3786" ry="2.3786" style="stroke: #038048; stroke-width: 0.7928642220019821;"/><text fill="#000000" font-family="sans-serif" font-size="8.7215" lengthAdjust="spacingAndGlyphs" textLength="74.5292" x="614.4698" y="366.0307">labelModification</text><ellipse cx="607.334" cy="374.3558" fill="none" rx="2.3786" ry="2.3786" style="stroke: #038048; stroke-width: 0.7928642220019821;"/><text fill="#000000" font-family="sans-serif" font-size="8.7215" lengthAdjust="spacingAndGlyphs" textLength="76.9078" x="614.4698" y="376.1893">valueModification</text><line style="stroke: #A80036; stroke-width: 1.1892963330029733;" x1="599.4054" x2="708.0278" y1="381.4172" y2="381.4172"/><text fill="#000000" font-family="sans-serif" font-size="8.7215" lengthAdjust="spacingAndGlyphs" textLength="81.665" x="603.3697" y="392.6908">project_data(data)</text><text fill="#000000" font-family="sans-serif" font-size="8.7215" lengthAdjust="spacingAndGlyphs" textLength="100.6938" x="603.3697" y="402.8494">draw_sampling(axisId)</text><rect fill="#FEFECE" filter="url(#f1)" height="38.0575" style="stroke: #A80036; stroke-width: 1.1892963330029733;" width="80.8722" x="543.9049" y="186.3231"/><ellipse cx="555.7978" cy="199.0089" fill="#ADD1B2" rx="8.7215" ry="8.7215" style="stroke: #A80036; stroke-width: 0.7928642220019821;"/><path d="M558.1516,203.4812 Q557.6933,203.7166 557.1853,203.8342 Q556.6774,203.9519 556.1199,203.9519 Q554.1378,203.9519 553.0909,202.6449 Q552.0441,201.338 552.0441,198.8603 Q552.0441,196.3826 553.0909,195.0694 Q554.1378,193.7562 556.1199,193.7562 Q556.6774,193.7562 557.1915,193.8801 Q557.7056,194.004 558.1516,194.2393 L558.1516,196.3949 Q557.6561,195.9366 557.1853,195.7198 Q556.7146,195.503 556.219,195.503 Q555.1536,195.503 554.6085,196.3516 Q554.0634,197.2002 554.0634,198.8603 Q554.0634,200.5203 554.6085,201.3689 Q555.1536,202.2175 556.219,202.2175 Q556.7146,202.2175 557.1853,202.0007 Q557.6561,201.7839 558.1516,201.3256 L558.1516,203.4812 Z "/><text fill="#000000" font-family="sans-serif" font-size="9.5144" lengthAdjust="spacingAndGlyphs" textLength="55.5005" x="566.8979" y="202.3043">Experiment</text><line style="stroke: #A80036; stroke-width: 1.1892963330029733;" x1="544.6977" x2="623.9841" y1="211.6947" y2="211.6947"/><line style="stroke: #A80036; stroke-width: 1.1892963330029733;" x1="544.6977" x2="623.9841" y1="218.0377" y2="218.0377"/><ellipse cx="654.113" cy="205.3518" fill="#000000" rx="1.5857" ry="1.5857" style="stroke: none; stroke-width: 0.7928642220019821;"/><path d="M347.0969,96.8024 C377.9592,118.1542 420.7833,148.2989 457.4827,176.0159 C461.0569,178.7156 464.7833,181.6127 468.4305,184.4971 " fill="none" style="stroke: #A80036; stroke-width: 0.7928642220019821; stroke-dasharray: 7.0,7.0;"/><polygon fill="#A80036" points="471.7502,187.1366,468.1377,180.2136,468.6469,184.6698,464.1908,185.179,471.7502,187.1366" style="stroke: #A80036; stroke-width: 0.7928642220019821;"/><path d="M246.2343,105.3138 C204.6628,131.4664 150.7076,165.4089 117.5461,186.2708 " fill="none" style="stroke: #A80036; stroke-width: 0.7928642220019821;"/><polygon fill="none" points="243.4331,100.5201,259.8105,96.7738,249.3431,109.9156,243.4331,100.5201" style="stroke: #A80036; stroke-width: 0.7928642220019821;"/><path d="M285.2702,111.399 C273.6309,136.5685 259.5378,167.0438 250.6252,186.3191 " fill="none" style="stroke: #A80036; stroke-width: 0.7928642220019821;"/><polygon fill="none" points="280.2624,109.0038,291.9556,96.9403,290.3374,113.6634,280.2624,109.0038" style="stroke: #A80036; stroke-width: 0.7928642220019821;"/><path d="M328.3433,111.1397 C339.6686,132.2069 353.0204,157.0442 363.1707,175.9255 " fill="none" style="stroke: #A80036; stroke-width: 0.7928642220019821;"/><polygon fill="none" points="323.33,113.5358,320.7104,96.9403,333.1068,108.2799,323.33,113.5358" style="stroke: #A80036; stroke-width: 0.7928642220019821;"/><path d="M382.2747,68.1863 C420.0531,68.1863 465.2765,68.1863 502.3167,68.1863 " fill="none" style="stroke: #A80036; stroke-width: 0.7928642220019821;"/><polygon fill="#A80036" points="512.7818,68.1863,508.0246,65.0149,503.2674,68.1863,508.0246,71.3578,512.7818,68.1863" style="stroke: #A80036; stroke-width: 0.7928642220019821;"/><text fill="#000000" font-family="sans-serif" font-size="10.3072" lengthAdjust="spacingAndGlyphs" textLength="18.2359" x="388.63" y="75.0961">2..*</text><text fill="#000000" font-family="sans-serif" font-size="10.3072" lengthAdjust="spacingAndGlyphs" textLength="6.3429" x="500.1997" y="67.9704">1</text><path d="M548.0341,112.7199 C534.3627,136.138 518.1899,163.8398 507.1152,182.8091 " fill="none" style="stroke: #A80036; stroke-width: 0.7928642220019821; stroke-dasharray: 7.0,7.0;"/><polygon fill="#A80036" points="505.1084,186.247,511.444,181.6822,507.1064,182.823,505.9656,178.4854,505.1084,186.247" style="stroke: #A80036; stroke-width: 0.7928642220019821;"/><path d="M651.173,77.9068 C661.087,77.8934 671.0533,77.6706 680.4575,77.2416 " fill="none" style="stroke: #A80036; stroke-width: 0.7928642220019821;"/><polygon fill="none" points="650.9931,83.4553,635.1929,77.7443,651.1056,72.356,650.9931,83.4553" style="stroke: #A80036; stroke-width: 0.7928642220019821;"/><path d="M489.5136,323.3522 C490.5625,295.4838 492.115,254.224 493.0791,228.6042 " fill="none" style="stroke: #A80036; stroke-width: 0.7928642220019821; stroke-dasharray: 7.0,7.0;"/><polygon fill="#A80036" points="493.2289,224.6311,489.7906,231.6422,493.0794,228.5926,496.129,231.8814,493.2289,224.6311" style="stroke: #A80036; stroke-width: 0.7928642220019821;"/><path d="M510.45,396.6628 C523.0438,421.7047 538.1931,451.8303 547.8065,470.9463 " fill="none" style="stroke: #A80036; stroke-width: 0.7928642220019821;"/><polygon fill="none" points="505.3685,398.9106,503.2024,382.2501,515.2848,393.9235,505.3685,398.9106" style="stroke: #A80036; stroke-width: 0.7928642220019821;"/><path d="M460.2125,395.6075 C443.5758,420.8539 423.3411,451.5608 410.5665,470.9463 " fill="none" style="stroke: #A80036; stroke-width: 0.7928642220019821;"/><polygon fill="none" points="455.6543,392.4369,469.0141,382.2501,464.9229,398.5451,455.6543,392.4369" style="stroke: #A80036; stroke-width: 0.7928642220019821;"/><path d="M487.6131,398.4341 C487.1857,423.1136 486.6799,452.2791 486.3564,470.9463 " fill="none" style="stroke: #A80036; stroke-width: 0.7928642220019821;"/><polygon fill="none" points="482.0702,398.0083,487.8938,382.2501,493.1687,398.201,482.0702,398.0083" style="stroke: #A80036; stroke-width: 0.7928642220019821;"/><path d="M636.31,522.8201 C629.0434,534.1931 621.1417,546.5615 614.8131,556.4667 " fill="none" style="stroke: #A80036; stroke-width: 0.7928642220019821;"/><polygon fill="none" points="631.7923,519.5818,645.0069,509.2067,641.1465,525.558,631.7923,519.5818" style="stroke: #A80036; stroke-width: 0.7928642220019821;"/><path d="M677.9552,522.8201 C685.1156,534.1931 692.9031,546.5615 699.1397,556.4667 " fill="none" style="stroke: #A80036; stroke-width: 0.7928642220019821;"/><polygon fill="none" points="673.1362,525.5831,669.3843,509.2067,682.5292,519.6688,673.1362,525.5831" style="stroke: #A80036; stroke-width: 0.7928642220019821;"/><path d="M544.5058,353.0934 C558.4833,353.16 573.5992,353.2321 588.0087,353.3011 " fill="none" style="stroke: #A80036; stroke-width: 0.7928642220019821;"/><polygon fill="#A80036" points="598.3508,353.3502,593.609,350.1558,588.8366,353.3042,593.5784,356.4987,598.3508,353.3502" style="stroke: #A80036; stroke-width: 0.7928642220019821;"/><path d="M655.621,418.4658 C656.0658,437.6048 656.5193,457.0957 656.8404,470.8868 " fill="none" style="stroke: #A80036; stroke-width: 0.7928642220019821;"/><polygon fill="#A80036" points="655.3752,407.9072,652.3149,412.7367,655.5958,417.419,658.6561,412.5896,655.3752,407.9072" style="stroke: #A80036; stroke-width: 0.7928642220019821;"/><path d="M598.4785,302.1138 C570.8123,276.5027 538.8408,246.9051 517.6159,227.2563 " fill="none" style="stroke: #A80036; stroke-width: 0.7928642220019821; stroke-dasharray: 7.0,7.0;"/><polygon fill="#A80036" points="514.5641,224.4313,517.6465,231.606,517.4734,227.1242,521.9552,226.9511,514.5641,224.4313" style="stroke: #A80036; stroke-width: 0.7928642220019821;"/><path d="M601.1687,112.7984 C612.7778,132.1253 626.3683,155.0779 638.2557,176.0159 C644.2014,186.488 650.9534,199.3094 653.2765,203.7487 " fill="none" style="stroke: #A80036; stroke-width: 0.7928642220019821;"/><text fill="#000000" font-family="sans-serif" font-size="10.3072" lengthAdjust="spacingAndGlyphs" textLength="18.2359" x="594.9303" y="128.5607">0..*</text><path d="M654.113,207.0168 C654.113,216.1475 654.113,261.106 654.113,298.8567 " fill="none" style="stroke: #A80036; stroke-width: 0.7928642220019821;"/><text fill="#000000" font-family="sans-serif" font-size="10.3072" lengthAdjust="spacingAndGlyphs" textLength="18.2359" x="648.2058" y="290.145">1..*</text><path d="M652.5185,205.3518 C643.3292,205.3518 634.1399,205.3518 624.9506,205.3518 " fill="none" style="stroke: #A80036; stroke-width: 0.7928642220019821; stroke-dasharray: 7.0,7.0;"/><path d="M520.3068,205.3518 C528.1649,205.3518 536.023,205.3518 543.8811,205.3518 " fill="none" style="stroke: #A80036; stroke-width: 0.7928642220019821; stroke-dasharray: 7.0,7.0;"/><polygon fill="#A80036" points="516.1982,205.3518,523.334,208.5233,520.1625,205.3518,523.334,202.1804,516.1982,205.3518" style="stroke: #A80036; stroke-width: 0.7928642220019821;"/></g></svg>