<?xml version="1.0" encoding="UTF-8" standalone="yes"?><svg xmlns="http://www.w3.org/2000/svg" xmlns:xlink="http://www.w3.org/1999/xlink" height="173pt" style="width:702px;height:173px;" version="1.1" viewBox="0 0 702 173" width="702pt"><defs><filter height="300%" id="f1" width="300%" x="-1" y="-1"><feGaussianBlur result="blurOut" stdDeviation="2.0"/><feColorMatrix in="blurOut" result="blurOut2" type="matrix" values="0 0 0 0 0 0 0 0 0 0 0 0 0 0 0 0 0 0 .4 0"/><feOffset dx="4.0" dy="4.0" in="blurOut2" result="blurOut3"/><feBlend in="SourceGraphic" in2="blurOut3" mode="normal"/></filter></defs><g><rect fill="#FEFECE" filter="url(#f1)" height="48" style="stroke: #A80036; stroke-width: 1.5;" width="81" x="6" y="8"/><ellipse cx="21" cy="24" fill="#ADD1B2" rx="11" ry="11" style="stroke: #A80036; stroke-width: 1.0;"/><path d="M23.9688,29.6406 Q23.3906,29.9375 22.75,30.0859 Q22.1094,30.2344 21.4063,30.2344 Q18.9063,30.2344 17.5859,28.5859 Q16.2656,26.9375 16.2656,23.8125 Q16.2656,20.6875 17.5859,19.0313 Q18.9063,17.375 21.4063,17.375 Q22.1094,17.375 22.7578,17.5313 Q23.4063,17.6875 23.9688,17.9844 L23.9688,20.7031 Q23.3438,20.125 22.75,19.8516 Q22.1563,19.5781 21.5313,19.5781 Q20.1875,19.5781 19.5,20.6484 Q18.8125,21.7188 18.8125,23.8125 Q18.8125,25.9063 19.5,26.9766 Q20.1875,28.0469 21.5313,28.0469 Q22.1563,28.0469 22.75,27.7734 Q23.3438,27.5 23.9688,26.9219 L23.9688,29.6406 Z "/><text fill="#000000" font-family="sans-serif" font-size="12" lengthAdjust="spacingAndGlyphs" textLength="49" x="35" y="28.1563">Class01</text><line style="stroke: #A80036; stroke-width: 1.5;" x1="7" x2="86" y1="40" y2="40"/><line style="stroke: #A80036; stroke-width: 1.5;" x1="7" x2="86" y1="48" y2="48"/><rect fill="#FEFECE" filter="url(#f1)" height="48" style="stroke: #A80036; stroke-width: 1.5;" width="81" x="6" y="116"/><ellipse cx="21" cy="132" fill="#ADD1B2" rx="11" ry="11" style="stroke: #A80036; stroke-width: 1.0;"/><path d="M23.9688,137.6406 Q23.3906,137.9375 22.75,138.0859 Q22.1094,138.2344 21.4063,138.2344 Q18.9063,138.2344 17.5859,136.5859 Q16.2656,134.9375 16.2656,131.8125 Q16.2656,128.6875 17.5859,127.0313 Q18.9063,125.375 21.4063,125.375 Q22.1094,125.375 22.7578,125.5313 Q23.4063,125.6875 23.9688,125.9844 L23.9688,128.7031 Q23.3438,128.125 22.75,127.8516 Q22.1563,127.5781 21.5313,127.5781 Q20.1875,127.5781 19.5,128.6484 Q18.8125,129.7188 18.8125,131.8125 Q18.8125,133.9063 19.5,134.9766 Q20.1875,136.0469 21.5313,136.0469 Q22.1563,136.0469 22.75,135.7734 Q23.3438,135.5 23.9688,134.9219 L23.9688,137.6406 Z "/><text fill="#000000" font-family="sans-serif" font-size="12" lengthAdjust="spacingAndGlyphs" textLength="49" x="35" y="136.1563">Class02</text><line style="stroke: #A80036; stroke-width: 1.5;" x1="7" x2="86" y1="148" y2="148"/><line style="stroke: #A80036; stroke-width: 1.5;" x1="7" x2="86" y1="156" y2="156"/><rect fill="#FEFECE" filter="url(#f1)" height="48" style="stroke: #A80036; stroke-width: 1.5;" width="81" x="121" y="8"/><ellipse cx="136" cy="24" fill="#ADD1B2" rx="11" ry="11" style="stroke: #A80036; stroke-width: 1.0;"/><path d="M138.9688,29.6406 Q138.3906,29.9375 137.75,30.0859 Q137.1094,30.2344 136.4063,30.2344 Q133.9063,30.2344 132.5859,28.5859 Q131.2656,26.9375 131.2656,23.8125 Q131.2656,20.6875 132.5859,19.0313 Q133.9063,17.375 136.4063,17.375 Q137.1094,17.375 137.7578,17.5313 Q138.4063,17.6875 138.9688,17.9844 L138.9688,20.7031 Q138.3438,20.125 137.75,19.8516 Q137.1563,19.5781 136.5313,19.5781 Q135.1875,19.5781 134.5,20.6484 Q133.8125,21.7188 133.8125,23.8125 Q133.8125,25.9063 134.5,26.9766 Q135.1875,28.0469 136.5313,28.0469 Q137.1563,28.0469 137.75,27.7734 Q138.3438,27.5 138.9688,26.9219 L138.9688,29.6406 Z "/><text fill="#000000" font-family="sans-serif" font-size="12" lengthAdjust="spacingAndGlyphs" textLength="49" x="150" y="28.1563">Class03</text><line style="stroke: #A80036; stroke-width: 1.5;" x1="122" x2="201" y1="40" y2="40"/><line style="stroke: #A80036; stroke-width: 1.5;" x1="122" x2="201" y1="48" y2="48"/><rect fill="#FEFECE" filter="url(#f1)" height="48" style="stroke: #A80036; stroke-width: 1.5;" width="81" x="121" y="116"/><ellipse cx="136" cy="132" fill="#ADD1B2" rx="11" ry="11" style="stroke: #A80036; stroke-width: 1.0;"/><path d="M138.9688,137.6406 Q138.3906,137.9375 137.75,138.0859 Q137.1094,138.2344 136.4063,138.2344 Q133.9063,138.2344 132.5859,136.5859 Q131.2656,134.9375 131.2656,131.8125 Q131.2656,128.6875 132.5859,127.0313 Q133.9063,125.375 136.4063,125.375 Q137.1094,125.375 137.7578,125.5313 Q138.4063,125.6875 138.9688,125.9844 L138.9688,128.7031 Q138.3438,128.125 137.75,127.8516 Q137.1563,127.5781 136.5313,127.5781 Q135.1875,127.5781 134.5,128.6484 Q133.8125,129.7188 133.8125,131.8125 Q133.8125,133.9063 134.5,134.9766 Q135.1875,136.0469 136.5313,136.0469 Q137.1563,136.0469 137.75,135.7734 Q138.3438,135.5 138.9688,134.9219 L138.9688,137.6406 Z "/><text fill="#000000" font-family="sans-serif" font-size="12" lengthAdjust="spacingAndGlyphs" textLength="49" x="150" y="136.1563">Class04</text><line style="stroke: #A80036; stroke-width: 1.5;" x1="122" x2="201" y1="148" y2="148"/><line style="stroke: #A80036; stroke-width: 1.5;" x1="122" x2="201" y1="156" y2="156"/><rect fill="#FEFECE" filter="url(#f1)" height="48" style="stroke: #A80036; stroke-width: 1.5;" width="81" x="236" y="8"/><ellipse cx="251" cy="24" fill="#ADD1B2" rx="11" ry="11" style="stroke: #A80036; stroke-width: 1.0;"/><path d="M253.9688,29.6406 Q253.3906,29.9375 252.75,30.0859 Q252.1094,30.2344 251.4063,30.2344 Q248.9063,30.2344 247.5859,28.5859 Q246.2656,26.9375 246.2656,23.8125 Q246.2656,20.6875 247.5859,19.0313 Q248.9063,17.375 251.4063,17.375 Q252.1094,17.375 252.7578,17.5313 Q253.4063,17.6875 253.9688,17.9844 L253.9688,20.7031 Q253.3438,20.125 252.75,19.8516 Q252.1563,19.5781 251.5313,19.5781 Q250.1875,19.5781 249.5,20.6484 Q248.8125,21.7188 248.8125,23.8125 Q248.8125,25.9063 249.5,26.9766 Q250.1875,28.0469 251.5313,28.0469 Q252.1563,28.0469 252.75,27.7734 Q253.3438,27.5 253.9688,26.9219 L253.9688,29.6406 Z "/><text fill="#000000" font-family="sans-serif" font-size="12" lengthAdjust="spacingAndGlyphs" textLength="49" x="265" y="28.1563">Class05</text><line style="stroke: #A80036; stroke-width: 1.5;" x1="237" x2="316" y1="40" y2="40"/><line style="stroke: #A80036; stroke-width: 1.5;" x1="237" x2="316" y1="48" y2="48"/><rect fill="#FEFECE" filter="url(#f1)" height="48" style="stroke: #A80036; stroke-width: 1.5;" width="81" x="236" y="116"/><ellipse cx="251" cy="132" fill="#ADD1B2" rx="11" ry="11" style="stroke: #A80036; stroke-width: 1.0;"/><path d="M253.9688,137.6406 Q253.3906,137.9375 252.75,138.0859 Q252.1094,138.2344 251.4063,138.2344 Q248.9063,138.2344 247.5859,136.5859 Q246.2656,134.9375 246.2656,131.8125 Q246.2656,128.6875 247.5859,127.0313 Q248.9063,125.375 251.4063,125.375 Q252.1094,125.375 252.7578,125.5313 Q253.4063,125.6875 253.9688,125.9844 L253.9688,128.7031 Q253.3438,128.125 252.75,127.8516 Q252.1563,127.5781 251.5313,127.5781 Q250.1875,127.5781 249.5,128.6484 Q248.8125,129.7188 248.8125,131.8125 Q248.8125,133.9063 249.5,134.9766 Q250.1875,136.0469 251.5313,136.0469 Q252.1563,136.0469 252.75,135.7734 Q253.3438,135.5 253.9688,134.9219 L253.9688,137.6406 Z "/><text fill="#000000" font-family="sans-serif" font-size="12" lengthAdjust="spacingAndGlyphs" textLength="49" x="265" y="136.1563">Class06</text><line style="stroke: #A80036; stroke-width: 1.5;" x1="237" x2="316" y1="148" y2="148"/><line style="stroke: #A80036; stroke-width: 1.5;" x1="237" x2="316" y1="156" y2="156"/><rect fill="#FEFECE" filter="url(#f1)" height="48" style="stroke: #A80036; stroke-width: 1.5;" width="81" x="351" y="8"/><ellipse cx="366" cy="24" fill="#ADD1B2" rx="11" ry="11" style="stroke: #A80036; stroke-width: 1.0;"/><path d="M368.9688,29.6406 Q368.3906,29.9375 367.75,30.0859 Q367.1094,30.2344 366.4063,30.2344 Q363.9063,30.2344 362.5859,28.5859 Q361.2656,26.9375 361.2656,23.8125 Q361.2656,20.6875 362.5859,19.0313 Q363.9063,17.375 366.4063,17.375 Q367.1094,17.375 367.7578,17.5313 Q368.4063,17.6875 368.9688,17.9844 L368.9688,20.7031 Q368.3438,20.125 367.75,19.8516 Q367.1563,19.5781 366.5313,19.5781 Q365.1875,19.5781 364.5,20.6484 Q363.8125,21.7188 363.8125,23.8125 Q363.8125,25.9063 364.5,26.9766 Q365.1875,28.0469 366.5313,28.0469 Q367.1563,28.0469 367.75,27.7734 Q368.3438,27.5 368.9688,26.9219 L368.9688,29.6406 Z "/><text fill="#000000" font-family="sans-serif" font-size="12" lengthAdjust="spacingAndGlyphs" textLength="49" x="380" y="28.1563">Class07</text><line style="stroke: #A80036; stroke-width: 1.5;" x1="352" x2="431" y1="40" y2="40"/><line style="stroke: #A80036; stroke-width: 1.5;" x1="352" x2="431" y1="48" y2="48"/><rect fill="#FEFECE" filter="url(#f1)" height="48" style="stroke: #A80036; stroke-width: 1.5;" width="81" x="351" y="116"/><ellipse cx="366" cy="132" fill="#ADD1B2" rx="11" ry="11" style="stroke: #A80036; stroke-width: 1.0;"/><path d="M368.9688,137.6406 Q368.3906,137.9375 367.75,138.0859 Q367.1094,138.2344 366.4063,138.2344 Q363.9063,138.2344 362.5859,136.5859 Q361.2656,134.9375 361.2656,131.8125 Q361.2656,128.6875 362.5859,127.0313 Q363.9063,125.375 366.4063,125.375 Q367.1094,125.375 367.7578,125.5313 Q368.4063,125.6875 368.9688,125.9844 L368.9688,128.7031 Q368.3438,128.125 367.75,127.8516 Q367.1563,127.5781 366.5313,127.5781 Q365.1875,127.5781 364.5,128.6484 Q363.8125,129.7188 363.8125,131.8125 Q363.8125,133.9063 364.5,134.9766 Q365.1875,136.0469 366.5313,136.0469 Q367.1563,136.0469 367.75,135.7734 Q368.3438,135.5 368.9688,134.9219 L368.9688,137.6406 Z "/><text fill="#000000" font-family="sans-serif" font-size="12" lengthAdjust="spacingAndGlyphs" textLength="49" x="380" y="136.1563">Class08</text><line style="stroke: #A80036; stroke-width: 1.5;" x1="352" x2="431" y1="148" y2="148"/><line style="stroke: #A80036; stroke-width: 1.5;" x1="352" x2="431" y1="156" y2="156"/><rect fill="#FEFECE" filter="url(#f1)" height="48" style="stroke: #A80036; stroke-width: 1.5;" width="81" x="466" y="8"/><ellipse cx="481" cy="24" fill="#ADD1B2" rx="11" ry="11" style="stroke: #A80036; stroke-width: 1.0;"/><path d="M483.9688,29.6406 Q483.3906,29.9375 482.75,30.0859 Q482.1094,30.2344 481.4063,30.2344 Q478.9063,30.2344 477.5859,28.5859 Q476.2656,26.9375 476.2656,23.8125 Q476.2656,20.6875 477.5859,19.0313 Q478.9063,17.375 481.4063,17.375 Q482.1094,17.375 482.7578,17.5313 Q483.4063,17.6875 483.9688,17.9844 L483.9688,20.7031 Q483.3438,20.125 482.75,19.8516 Q482.1563,19.5781 481.5313,19.5781 Q480.1875,19.5781 479.5,20.6484 Q478.8125,21.7188 478.8125,23.8125 Q478.8125,25.9063 479.5,26.9766 Q480.1875,28.0469 481.5313,28.0469 Q482.1563,28.0469 482.75,27.7734 Q483.3438,27.5 483.9688,26.9219 L483.9688,29.6406 Z "/><text fill="#000000" font-family="sans-serif" font-size="12" lengthAdjust="spacingAndGlyphs" textLength="49" x="495" y="28.1563">Class09</text><line style="stroke: #A80036; stroke-width: 1.5;" x1="467" x2="546" y1="40" y2="40"/><line style="stroke: #A80036; stroke-width: 1.5;" x1="467" x2="546" y1="48" y2="48"/><rect fill="#FEFECE" filter="url(#f1)" height="48" style="stroke: #A80036; stroke-width: 1.5;" width="81" x="466" y="116"/><ellipse cx="481" cy="132" fill="#ADD1B2" rx="11" ry="11" style="stroke: #A80036; stroke-width: 1.0;"/><path d="M483.9688,137.6406 Q483.3906,137.9375 482.75,138.0859 Q482.1094,138.2344 481.4063,138.2344 Q478.9063,138.2344 477.5859,136.5859 Q476.2656,134.9375 476.2656,131.8125 Q476.2656,128.6875 477.5859,127.0313 Q478.9063,125.375 481.4063,125.375 Q482.1094,125.375 482.7578,125.5313 Q483.4063,125.6875 483.9688,125.9844 L483.9688,128.7031 Q483.3438,128.125 482.75,127.8516 Q482.1563,127.5781 481.5313,127.5781 Q480.1875,127.5781 479.5,128.6484 Q478.8125,129.7188 478.8125,131.8125 Q478.8125,133.9063 479.5,134.9766 Q480.1875,136.0469 481.5313,136.0469 Q482.1563,136.0469 482.75,135.7734 Q483.3438,135.5 483.9688,134.9219 L483.9688,137.6406 Z "/><text fill="#000000" font-family="sans-serif" font-size="12" lengthAdjust="spacingAndGlyphs" textLength="49" x="495" y="136.1563">Class10</text><line style="stroke: #A80036; stroke-width: 1.5;" x1="467" x2="546" y1="148" y2="148"/><line style="stroke: #A80036; stroke-width: 1.5;" x1="467" x2="546" y1="156" y2="156"/><rect fill="#FEFECE" filter="url(#f1)" height="48" style="stroke: #A80036; stroke-width: 1.5;" width="81" x="597" y="8"/><ellipse cx="612" cy="24" fill="#ADD1B2" rx="11" ry="11" style="stroke: #A80036; stroke-width: 1.0;"/><path d="M614.9688,29.6406 Q614.3906,29.9375 613.75,30.0859 Q613.1094,30.2344 612.4063,30.2344 Q609.9063,30.2344 608.5859,28.5859 Q607.2656,26.9375 607.2656,23.8125 Q607.2656,20.6875 608.5859,19.0313 Q609.9063,17.375 612.4063,17.375 Q613.1094,17.375 613.7578,17.5313 Q614.4063,17.6875 614.9688,17.9844 L614.9688,20.7031 Q614.3438,20.125 613.75,19.8516 Q613.1563,19.5781 612.5313,19.5781 Q611.1875,19.5781 610.5,20.6484 Q609.8125,21.7188 609.8125,23.8125 Q609.8125,25.9063 610.5,26.9766 Q611.1875,28.0469 612.5313,28.0469 Q613.1563,28.0469 613.75,27.7734 Q614.3438,27.5 614.9688,26.9219 L614.9688,29.6406 Z "/><text fill="#000000" font-family="sans-serif" font-size="12" lengthAdjust="spacingAndGlyphs" textLength="49" x="626" y="28.1563">Class11</text><line style="stroke: #A80036; stroke-width: 1.5;" x1="598" x2="677" y1="40" y2="40"/><line style="stroke: #A80036; stroke-width: 1.5;" x1="598" x2="677" y1="48" y2="48"/><rect fill="#FEFECE" filter="url(#f1)" height="48" style="stroke: #A80036; stroke-width: 1.5;" width="112" x="581" y="116"/><ellipse cx="596" cy="132" fill="#ADD1B2" rx="11" ry="11" style="stroke: #A80036; stroke-width: 1.0;"/><path d="M598.9688,137.6406 Q598.3906,137.9375 597.75,138.0859 Q597.1094,138.2344 596.4063,138.2344 Q593.9063,138.2344 592.5859,136.5859 Q591.2656,134.9375 591.2656,131.8125 Q591.2656,128.6875 592.5859,127.0313 Q593.9063,125.375 596.4063,125.375 Q597.1094,125.375 597.7578,125.5313 Q598.4063,125.6875 598.9688,125.9844 L598.9688,128.7031 Q598.3438,128.125 597.75,127.8516 Q597.1563,127.5781 596.5313,127.5781 Q595.1875,127.5781 594.5,128.6484 Q593.8125,129.7188 593.8125,131.8125 Q593.8125,133.9063 594.5,134.9766 Q595.1875,136.0469 596.5313,136.0469 Q597.1563,136.0469 597.75,135.7734 Q598.3438,135.5 598.9688,134.9219 L598.9688,137.6406 Z "/><text fill="#000000" font-family="sans-serif" font-size="12" lengthAdjust="spacingAndGlyphs" textLength="80" x="610" y="136.1563">Class12onse</text><line style="stroke: #A80036; stroke-width: 1.5;" x1="582" x2="692" y1="148" y2="148"/><line style="stroke: #A80036; stroke-width: 1.5;" x1="582" x2="692" y1="156" y2="156"/><path d="M46,76.2911 C46,89.8171 46,104.1835 46,115.8436 " fill="none" style="stroke: #A80036; stroke-width: 1.0;"/><polygon fill="none" points="39.0001,76.2373,46,56.237,53.0001,76.2373,39.0001,76.2373" style="stroke: #A80036; stroke-width: 1.0;"/><path d="M161,69.6145 C161,84.9531 161,102.2402 161,115.8436 " fill="none" style="stroke: #A80036; stroke-width: 1.0;"/><polygon fill="#A80036" points="161,56.237,157,62.237,161,68.237,165,62.237,161,56.237" style="stroke: #A80036; stroke-width: 1.0;"/><path d="M276,69.6145 C276,84.9531 276,102.2402 276,115.8436 " fill="none" style="stroke: #A80036; stroke-width: 1.0;"/><polygon fill="none" points="276,56.237,272,62.237,276,68.237,280,62.237,276,56.237" style="stroke: #A80036; stroke-width: 1.0;"/><path d="M391,56.237 C391,74.024 391,98.0759 391,115.8436 " fill="none" style="stroke: #A80036; stroke-width: 1.0; stroke-dasharray: 7.0,7.0;"/><path d="M506,56.237 C506,74.024 506,98.0759 506,115.8436 " fill="none" style="stroke: #A80036; stroke-width: 1.0;"/><path d="M637,76.2911 C637,89.8171 637,104.1835 637,115.8436 " fill="none" style="stroke: #A80036; stroke-width: 1.0; stroke-dasharray: 7.0,7.0;"/><polygon fill="none" points="630,76.2373,637,56.237,644,76.2373,630,76.2373" style="stroke: #A80036; stroke-width: 1.0;"/></g></svg>